<?xml version="1.0" encoding="UTF-8" standalone="no"?><svg xmlns="http://www.w3.org/2000/svg" xmlns:xlink="http://www.w3.org/1999/xlink" clip-rule="evenodd" stroke-miterlimit="10" viewBox="0 0 690 33"><desc>SVG generated by Keynote</desc><defs></defs><g transform="matrix(1.00, 0.00, -0.00, -1.00, 0.0, 33.0)"><text xml:space="preserve" font-family="JuliusSansOne-Regular,Julius Sans One" font-size="28.0" fill="#FEFFFE" transform="matrix(1.00, 0.00, -0.00, -1.00, 2.7, 8.6)">J</text><text xml:space="preserve" font-family="JuliusSansOne-Regular,Julius Sans One" font-size="28.0" fill="#FEFFFE" transform="matrix(1.00, 0.00, -0.00, -1.00, 15.9, 8.6)">O</text><text xml:space="preserve" font-family="JuliusSansOne-Regular,Julius Sans One" font-size="28.0" fill="#FEFFFE" transform="matrix(1.00, 0.00, -0.00, -1.00, 45.1, 8.6)">S</text><text xml:space="preserve" font-family="JuliusSansOne-Regular,Julius Sans One" font-size="28.0" fill="#FEFFFE" transform="matrix(1.00, 0.00, -0.00, -1.00, 64.9, 8.6)">H</text><text xml:space="preserve" font-family="JuliusSansOne-Regular,Julius Sans One" font-size="28.0" fill="#FEFFFE" transform="matrix(1.00, 0.00, -0.00, -1.00, 93.2, 8.6)">.</text><text xml:space="preserve" font-family="JuliusSansOne-Regular,Julius Sans One" font-size="28.0" fill="#FEFFFE" transform="matrix(1.00, 0.00, -0.00, -1.00, 100.9, 8.6)">M</text><text xml:space="preserve" font-family="JuliusSansOne-Regular,Julius Sans One" font-size="28.0" fill="#FEFFFE" transform="matrix(1.00, 0.00, -0.00, -1.00, 131.7, 8.6)">C</text><text xml:space="preserve" font-family="JuliusSansOne-Regular,Julius Sans One" font-size="28.0" fill="#FEFFFE" transform="matrix(1.00, 0.00, -0.00, -1.00, 157.0, 8.6)">K</text><text xml:space="preserve" font-family="JuliusSansOne-Regular,Julius Sans One" font-size="28.0" fill="#FEFFFE" transform="matrix(1.00, 0.00, -0.00, -1.00, 178.8, 8.6)">E</text><text xml:space="preserve" font-family="JuliusSansOne-Regular,Julius Sans One" font-size="28.0" fill="#FEFFFE" transform="matrix(1.00, 0.00, -0.00, -1.00, 198.3, 8.6)">N</text><text xml:space="preserve" font-family="JuliusSansOne-Regular,Julius Sans One" font-size="28.0" fill="#FEFFFE" transform="matrix(1.00, 0.00, -0.00, -1.00, 227.3, 8.6)">N</text><text xml:space="preserve" font-family="JuliusSansOne-Regular,Julius Sans One" font-size="28.0" fill="#FEFFFE" transform="matrix(1.00, 0.00, -0.00, -1.00, 256.3, 8.6)">A</text><text xml:space="preserve" font-family="JuliusSansOne-Regular,Julius Sans One" font-size="28.0" fill="#FEFFFE" transform="matrix(1.00, 0.00, -0.00, -1.00, 279.3, 8.6)">@</text><text xml:space="preserve" font-family="JuliusSansOne-Regular,Julius Sans One" font-size="28.0" fill="#FEFFFE" transform="matrix(1.00, 0.00, -0.00, -1.00, 309.3, 8.6)">A</text><text xml:space="preserve" font-family="JuliusSansOne-Regular,Julius Sans One" font-size="28.0" fill="#FEFFFE" transform="matrix(1.00, 0.00, -0.00, -1.00, 332.1, 8.6)">G</text><text xml:space="preserve" font-family="JuliusSansOne-Regular,Julius Sans One" font-size="28.0" fill="#FEFFFE" transform="matrix(1.00, 0.00, -0.00, -1.00, 359.6, 8.6)">G</text><text xml:space="preserve" font-family="JuliusSansOne-Regular,Julius Sans One" font-size="28.0" fill="#FEFFFE" transform="matrix(1.00, 0.00, -0.00, -1.00, 387.1, 8.6)">I</text><text xml:space="preserve" font-family="JuliusSansOne-Regular,Julius Sans One" font-size="28.0" fill="#FEFFFE" transform="matrix(1.00, 0.00, -0.00, -1.00, 400.3, 8.6)">E</text><text xml:space="preserve" font-family="JuliusSansOne-Regular,Julius Sans One" font-size="28.0" fill="#FEFFFE" transform="matrix(1.00, 0.00, -0.00, -1.00, 419.7, 8.6)">N</text><text xml:space="preserve" font-family="JuliusSansOne-Regular,Julius Sans One" font-size="28.0" fill="#FEFFFE" transform="matrix(1.00, 0.00, -0.00, -1.00, 448.7, 8.6)">E</text><text xml:space="preserve" font-family="JuliusSansOne-Regular,Julius Sans One" font-size="28.0" fill="#FEFFFE" transform="matrix(1.00, 0.00, -0.00, -1.00, 468.2, 8.6)">T</text><text xml:space="preserve" font-family="JuliusSansOne-Regular,Julius Sans One" font-size="28.0" fill="#FEFFFE" transform="matrix(1.00, 0.00, -0.00, -1.00, 488.8, 8.6)">W</text><text xml:space="preserve" font-family="JuliusSansOne-Regular,Julius Sans One" font-size="28.0" fill="#FEFFFE" transform="matrix(1.00, 0.00, -0.00, -1.00, 522.2, 8.6)">O</text><text xml:space="preserve" font-family="JuliusSansOne-Regular,Julius Sans One" font-size="28.0" fill="#FEFFFE" transform="matrix(1.00, 0.00, -0.00, -1.00, 551.4, 8.6)">R</text><text xml:space="preserve" font-family="JuliusSansOne-Regular,Julius Sans One" font-size="28.0" fill="#FEFFFE" transform="matrix(1.00, 0.00, -0.00, -1.00, 574.3, 8.6)">K</text><text xml:space="preserve" font-family="JuliusSansOne-Regular,Julius Sans One" font-size="28.0" fill="#FEFFFE" transform="matrix(1.00, 0.00, -0.00, -1.00, 597.4, 8.6)">.</text><text xml:space="preserve" font-family="JuliusSansOne-Regular,Julius Sans One" font-size="28.0" fill="#FEFFFE" transform="matrix(1.00, 0.00, -0.00, -1.00, 605.1, 8.6)">C</text><text xml:space="preserve" font-family="JuliusSansOne-Regular,Julius Sans One" font-size="28.0" fill="#FEFFFE" transform="matrix(1.00, 0.00, -0.00, -1.00, 630.0, 8.6)">O</text><text xml:space="preserve" font-family="JuliusSansOne-Regular,Julius Sans One" font-size="28.0" fill="#FEFFFE" transform="matrix(1.00, 0.00, -0.00, -1.00, 659.2, 8.6)">M</text><g><clipPath id="clip0x7f9dcbc7d3a0"><path d="M 1.7 4.8 L 690.0 4.8 L 690.0 8.2 L 1.7 8.2 Z M 1.7 4.8 "></path></clipPath><g clip-path="url(#clip0x7f9dcbc7d3a0)"><path d="M 4.0 54.7 L 691.3 54.7 " fill="none" stroke="#FEFFFE" stroke-width="1.40" transform="matrix(1.00, 0.00, 0.00, -1.00, -1.3, 61.3)"></path></g></g></g></svg>