<?xml version="1.0" encoding="UTF-8" standalone="no"?><svg xmlns="http://www.w3.org/2000/svg" xmlns:xlink="http://www.w3.org/1999/xlink" clip-rule="evenodd" stroke-miterlimit="10" viewBox="0 0 676 67"><desc>SVG generated by Keynote</desc><defs></defs><g transform="matrix(1.00, 0.00, -0.00, -1.00, 0.0, 67.0)"><text xml:space="preserve" font-family="JuliusSansOne-Regular,Julius Sans One" font-size="86.0" fill="#FEFFFF" transform="matrix(1.00, 0.00, -0.00, -1.00, 0.0, 2.6)">T</text><text xml:space="preserve" font-family="JuliusSansOne-Regular,Julius Sans One" font-size="86.0" fill="#FEFFFF" transform="matrix(1.00, 0.00, -0.00, -1.00, 63.3, 2.6)">H</text><text xml:space="preserve" font-family="JuliusSansOne-Regular,Julius Sans One" font-size="86.0" fill="#FEFFFF" transform="matrix(1.00, 0.00, -0.00, -1.00, 150.2, 2.6)">A</text><text xml:space="preserve" font-family="JuliusSansOne-Regular,Julius Sans One" font-size="86.0" fill="#FEFFFF" transform="matrix(1.00, 0.00, -0.00, -1.00, 221.0, 2.6)">N</text><text xml:space="preserve" font-family="JuliusSansOne-Regular,Julius Sans One" font-size="86.0" fill="#FEFFFF" transform="matrix(1.00, 0.00, -0.00, -1.00, 310.0, 2.6)">K</text><text xml:space="preserve" font-family="JuliusSansOne-Regular,Julius Sans One" font-size="86.0" fill="#FEFFFF" transform="matrix(1.00, 0.00, -0.00, -1.00, 377.1, 2.6)"> </text><text xml:space="preserve" font-family="JuliusSansOne-Regular,Julius Sans One" font-size="86.0" fill="#FEFFFF" transform="matrix(1.00, 0.00, -0.00, -1.00, 421.8, 2.6)">Y</text><text xml:space="preserve" font-family="JuliusSansOne-Regular,Julius Sans One" font-size="86.0" fill="#FEFFFF" transform="matrix(1.00, 0.00, -0.00, -1.00, 486.9, 2.6)">O</text><text xml:space="preserve" font-family="JuliusSansOne-Regular,Julius Sans One" font-size="86.0" fill="#FEFFFF" transform="matrix(1.00, 0.00, -0.00, -1.00, 576.6, 2.6)">U</text><text xml:space="preserve" font-family="JuliusSansOne-Regular,Julius Sans One" font-size="86.0" fill="#FEFFFF" transform="matrix(1.00, 0.00, -0.00, -1.00, 659.8, 2.6)">!</text></g></svg>