<?xml version="1.0" encoding="UTF-8" standalone="no"?><svg xmlns="http://www.w3.org/2000/svg" xmlns:xlink="http://www.w3.org/1999/xlink" clip-rule="evenodd" stroke-miterlimit="10" viewBox="0 0 456 23"><desc>SVG generated by Keynote</desc><defs></defs><g transform="matrix(1.00, 0.00, -0.00, -1.00, 0.0, 23.0)"><text xml:space="preserve" font-family="JuliusSansOne-Regular,Julius Sans One" font-size="26.0" fill="#FEFFFE" transform="matrix(1.00, 0.00, -0.00, -1.00, -0.5, 2.8)">C</text><text xml:space="preserve" font-family="JuliusSansOne-Regular,Julius Sans One" font-size="26.0" fill="#FEFFFE" transform="matrix(1.00, 0.00, -0.00, -1.00, 23.0, 2.8)">H</text><text xml:space="preserve" font-family="JuliusSansOne-Regular,Julius Sans One" font-size="26.0" fill="#FEFFFE" transform="matrix(1.00, 0.00, -0.00, -1.00, 49.3, 2.8)">A</text><text xml:space="preserve" font-family="JuliusSansOne-Regular,Julius Sans One" font-size="26.0" fill="#FEFFFE" transform="matrix(1.00, 0.00, -0.00, -1.00, 70.7, 2.8)">N</text><text xml:space="preserve" font-family="JuliusSansOne-Regular,Julius Sans One" font-size="26.0" fill="#FEFFFE" transform="matrix(1.00, 0.00, -0.00, -1.00, 97.6, 2.8)">G</text><text xml:space="preserve" font-family="JuliusSansOne-Regular,Julius Sans One" font-size="26.0" fill="#FEFFFE" transform="matrix(1.00, 0.00, -0.00, -1.00, 123.2, 2.8)">E</text><text xml:space="preserve" font-family="JuliusSansOne-Regular,Julius Sans One" font-size="26.0" fill="#FEFFFE" transform="matrix(1.00, 0.00, -0.00, -1.00, 141.2, 2.8)"> </text><text xml:space="preserve" font-family="JuliusSansOne-Regular,Julius Sans One" font-size="26.0" fill="#FEFFFE" transform="matrix(1.00, 0.00, -0.00, -1.00, 154.7, 2.8)">I</text><text xml:space="preserve" font-family="JuliusSansOne-Regular,Julius Sans One" font-size="26.0" fill="#FEFFFE" transform="matrix(1.00, 0.00, -0.00, -1.00, 167.0, 2.8)">N</text><text xml:space="preserve" font-family="JuliusSansOne-Regular,Julius Sans One" font-size="26.0" fill="#FEFFFE" transform="matrix(1.00, 0.00, -0.00, -1.00, 193.9, 2.8)"> </text><text xml:space="preserve" font-family="JuliusSansOne-Regular,Julius Sans One" font-size="26.0" fill="#FEFFFE" transform="matrix(1.00, 0.00, -0.00, -1.00, 207.4, 2.8)">T</text><text xml:space="preserve" font-family="JuliusSansOne-Regular,Julius Sans One" font-size="26.0" fill="#FEFFFE" transform="matrix(1.00, 0.00, -0.00, -1.00, 226.6, 2.8)">H</text><text xml:space="preserve" font-family="JuliusSansOne-Regular,Julius Sans One" font-size="26.0" fill="#FEFFFE" transform="matrix(1.00, 0.00, -0.00, -1.00, 252.9, 2.8)">E</text><text xml:space="preserve" font-family="JuliusSansOne-Regular,Julius Sans One" font-size="26.0" fill="#FEFFFE" transform="matrix(1.00, 0.00, -0.00, -1.00, 270.9, 2.8)">I</text><text xml:space="preserve" font-family="JuliusSansOne-Regular,Julius Sans One" font-size="26.0" fill="#FEFFFE" transform="matrix(1.00, 0.00, -0.00, -1.00, 283.2, 2.8)">R</text><text xml:space="preserve" font-family="JuliusSansOne-Regular,Julius Sans One" font-size="26.0" fill="#FEFFFE" transform="matrix(1.00, 0.00, -0.00, -1.00, 304.5, 2.8)"> </text><text xml:space="preserve" font-family="JuliusSansOne-Regular,Julius Sans One" font-size="26.0" fill="#FEFFFE" transform="matrix(1.00, 0.00, -0.00, -1.00, 318.0, 2.8)">W</text><text xml:space="preserve" font-family="JuliusSansOne-Regular,Julius Sans One" font-size="26.0" fill="#FEFFFE" transform="matrix(1.00, 0.00, -0.00, -1.00, 349.0, 2.8)">O</text><text xml:space="preserve" font-family="JuliusSansOne-Regular,Julius Sans One" font-size="26.0" fill="#FEFFFE" transform="matrix(1.00, 0.00, -0.00, -1.00, 376.1, 2.8)">R</text><text xml:space="preserve" font-family="JuliusSansOne-Regular,Julius Sans One" font-size="26.0" fill="#FEFFFE" transform="matrix(1.00, 0.00, -0.00, -1.00, 397.4, 2.8)">L</text><text xml:space="preserve" font-family="JuliusSansOne-Regular,Julius Sans One" font-size="26.0" fill="#FEFFFE" transform="matrix(1.00, 0.00, -0.00, -1.00, 415.3, 2.8)">D</text><text xml:space="preserve" font-family="JuliusSansOne-Regular,Julius Sans One" font-size="26.0" fill="#FEFFFE" transform="matrix(1.00, 0.00, -0.00, -1.00, 440.1, 2.8)">.</text><text xml:space="preserve" font-family="JuliusSansOne-Regular,Julius Sans One" font-size="26.0" fill="#FEFFFE" transform="matrix(1.00, 0.00, -0.00, -1.00, 448.2, 2.8)">”</text></g></svg>