<?xml version="1.0" encoding="UTF-8" standalone="no"?><svg xmlns="http://www.w3.org/2000/svg" xmlns:xlink="http://www.w3.org/1999/xlink" clip-rule="evenodd" stroke-miterlimit="10" viewBox="0 0 689 24"><desc>SVG generated by Keynote</desc><defs></defs><g transform="matrix(1.00, 0.00, -0.00, -1.00, 0.0, 24.0)"><text xml:space="preserve" font-family="JuliusSansOne-Regular,Julius Sans One" font-size="26.0" fill="#FEFFFE" transform="matrix(1.00, 0.00, -0.00, -1.00, -1.5, 3.8)">B</text><text xml:space="preserve" font-family="JuliusSansOne-Regular,Julius Sans One" font-size="26.0" fill="#FEFFFE" transform="matrix(1.00, 0.00, -0.00, -1.00, 19.0, 3.8)">A</text><text xml:space="preserve" font-family="JuliusSansOne-Regular,Julius Sans One" font-size="26.0" fill="#FEFFFE" transform="matrix(1.00, 0.00, -0.00, -1.00, 40.2, 3.8)">C</text><text xml:space="preserve" font-family="JuliusSansOne-Regular,Julius Sans One" font-size="26.0" fill="#FEFFFE" transform="matrix(1.00, 0.00, -0.00, -1.00, 63.7, 3.8)">K</text><text xml:space="preserve" font-family="JuliusSansOne-Regular,Julius Sans One" font-size="26.0" fill="#FEFFFE" transform="matrix(1.00, 0.00, -0.00, -1.00, 84.0, 3.8)">Y</text><text xml:space="preserve" font-family="JuliusSansOne-Regular,Julius Sans One" font-size="26.0" fill="#FEFFFE" transform="matrix(1.00, 0.00, -0.00, -1.00, 102.0, 3.8)">A</text><text xml:space="preserve" font-family="JuliusSansOne-Regular,Julius Sans One" font-size="26.0" fill="#FEFFFE" transform="matrix(1.00, 0.00, -0.00, -1.00, 123.4, 3.8)">R</text><text xml:space="preserve" font-family="JuliusSansOne-Regular,Julius Sans One" font-size="26.0" fill="#FEFFFE" transform="matrix(1.00, 0.00, -0.00, -1.00, 144.7, 3.8)">D</text><text xml:space="preserve" font-family="JuliusSansOne-Regular,Julius Sans One" font-size="26.0" fill="#FEFFFE" transform="matrix(1.00, 0.00, -0.00, -1.00, 170.0, 3.8)"> </text><text xml:space="preserve" font-family="JuliusSansOne-Regular,Julius Sans One" font-size="26.0" fill="#FEFFFE" transform="matrix(1.00, 0.00, -0.00, -1.00, 183.6, 3.8)">-</text><text xml:space="preserve" font-family="JuliusSansOne-Regular,Julius Sans One" font-size="26.0" fill="#FEFFFE" transform="matrix(1.00, 0.00, -0.00, -1.00, 200.6, 3.8)"> </text><text xml:space="preserve" font-family="JuliusSansOne-Regular,Julius Sans One" font-size="26.0" fill="#FEFFFE" transform="matrix(1.00, 0.00, -0.00, -1.00, 214.1, 3.8)">T</text><text xml:space="preserve" font-family="JuliusSansOne-Regular,Julius Sans One" font-size="26.0" fill="#FEFFFE" transform="matrix(1.00, 0.00, -0.00, -1.00, 233.2, 3.8)">H</text><text xml:space="preserve" font-family="JuliusSansOne-Regular,Julius Sans One" font-size="26.0" fill="#FEFFFE" transform="matrix(1.00, 0.00, -0.00, -1.00, 259.5, 3.8)">E</text><text xml:space="preserve" font-family="JuliusSansOne-Regular,Julius Sans One" font-size="26.0" fill="#FEFFFE" transform="matrix(1.00, 0.00, -0.00, -1.00, 277.6, 3.8)">Y</text><text xml:space="preserve" font-family="JuliusSansOne-Regular,Julius Sans One" font-size="26.0" fill="#FEFFFE" transform="matrix(1.00, 0.00, -0.00, -1.00, 297.8, 3.8)"> </text><text xml:space="preserve" font-family="JuliusSansOne-Regular,Julius Sans One" font-size="26.0" fill="#FEFFFE" transform="matrix(1.00, 0.00, -0.00, -1.00, 311.4, 3.8)">H</text><text xml:space="preserve" font-family="JuliusSansOne-Regular,Julius Sans One" font-size="26.0" fill="#FEFFFE" transform="matrix(1.00, 0.00, -0.00, -1.00, 337.6, 3.8)">A</text><text xml:space="preserve" font-family="JuliusSansOne-Regular,Julius Sans One" font-size="26.0" fill="#FEFFFE" transform="matrix(1.00, 0.00, -0.00, -1.00, 357.5, 3.8)">V</text><text xml:space="preserve" font-family="JuliusSansOne-Regular,Julius Sans One" font-size="26.0" fill="#FEFFFE" transform="matrix(1.00, 0.00, -0.00, -1.00, 379.2, 3.8)">E</text><text xml:space="preserve" font-family="JuliusSansOne-Regular,Julius Sans One" font-size="26.0" fill="#FEFFFE" transform="matrix(1.00, 0.00, -0.00, -1.00, 397.3, 3.8)"> </text><text xml:space="preserve" font-family="JuliusSansOne-Regular,Julius Sans One" font-size="26.0" fill="#FEFFFE" transform="matrix(1.00, 0.00, -0.00, -1.00, 410.8, 3.8)">T</text><text xml:space="preserve" font-family="JuliusSansOne-Regular,Julius Sans One" font-size="26.0" fill="#FEFFFE" transform="matrix(1.00, 0.00, -0.00, -1.00, 430.0, 3.8)">H</text><text xml:space="preserve" font-family="JuliusSansOne-Regular,Julius Sans One" font-size="26.0" fill="#FEFFFE" transform="matrix(1.00, 0.00, -0.00, -1.00, 456.3, 3.8)">E</text><text xml:space="preserve" font-family="JuliusSansOne-Regular,Julius Sans One" font-size="26.0" fill="#FEFFFE" transform="matrix(1.00, 0.00, -0.00, -1.00, 474.3, 3.8)"> </text><text xml:space="preserve" font-family="JuliusSansOne-Regular,Julius Sans One" font-size="26.0" fill="#FEFFFE" transform="matrix(1.00, 0.00, -0.00, -1.00, 487.8, 3.8)">V</text><text xml:space="preserve" font-family="JuliusSansOne-Regular,Julius Sans One" font-size="26.0" fill="#FEFFFE" transform="matrix(1.00, 0.00, -0.00, -1.00, 508.0, 3.8)">A</text><text xml:space="preserve" font-family="JuliusSansOne-Regular,Julius Sans One" font-size="26.0" fill="#FEFFFE" transform="matrix(1.00, 0.00, -0.00, -1.00, 529.4, 3.8)">L</text><text xml:space="preserve" font-family="JuliusSansOne-Regular,Julius Sans One" font-size="26.0" fill="#FEFFFE" transform="matrix(1.00, 0.00, -0.00, -1.00, 546.8, 3.8)">U</text><text xml:space="preserve" font-family="JuliusSansOne-Regular,Julius Sans One" font-size="26.0" fill="#FEFFFE" transform="matrix(1.00, 0.00, -0.00, -1.00, 571.9, 3.8)">E</text><text xml:space="preserve" font-family="JuliusSansOne-Regular,Julius Sans One" font-size="26.0" fill="#FEFFFE" transform="matrix(1.00, 0.00, -0.00, -1.00, 590.0, 3.8)">S</text><text xml:space="preserve" font-family="JuliusSansOne-Regular,Julius Sans One" font-size="26.0" fill="#FEFFFE" transform="matrix(1.00, 0.00, -0.00, -1.00, 608.4, 3.8)">,</text><text xml:space="preserve" font-family="JuliusSansOne-Regular,Julius Sans One" font-size="26.0" fill="#FEFFFE" transform="matrix(1.00, 0.00, -0.00, -1.00, 615.5, 3.8)"> </text><text xml:space="preserve" font-family="JuliusSansOne-Regular,Julius Sans One" font-size="26.0" fill="#FEFFFE" transform="matrix(1.00, 0.00, -0.00, -1.00, 629.0, 3.8)">T</text><text xml:space="preserve" font-family="JuliusSansOne-Regular,Julius Sans One" font-size="26.0" fill="#FEFFFE" transform="matrix(1.00, 0.00, -0.00, -1.00, 648.1, 3.8)">H</text><text xml:space="preserve" font-family="JuliusSansOne-Regular,Julius Sans One" font-size="26.0" fill="#FEFFFE" transform="matrix(1.00, 0.00, -0.00, -1.00, 674.4, 3.8)">E</text></g></svg>