<?xml version="1.0" encoding="UTF-8" standalone="no"?><svg xmlns="http://www.w3.org/2000/svg" xmlns:xlink="http://www.w3.org/1999/xlink" clip-rule="evenodd" stroke-miterlimit="10" viewBox="0 0 1642 24"><desc>SVG generated by Keynote</desc><defs></defs><g transform="matrix(1.00, 0.00, -0.00, -1.00, 0.0, 24.0)"><text xml:space="preserve" font-family="JuliusSansOne-Regular,Julius Sans One" font-size="26.0" fill="#FEFFFE" transform="matrix(1.00, 0.00, -0.00, -1.00, 1.5, 3.1)">“</text><text xml:space="preserve" font-family="JuliusSansOne-Regular,Julius Sans One" font-size="26.0" fill="#FEFFFE" transform="matrix(1.00, 0.00, -0.00, -1.00, 9.8, 3.1)">A</text><text xml:space="preserve" font-family="JuliusSansOne-Regular,Julius Sans One" font-size="26.0" fill="#FEFFFE" transform="matrix(1.00, 0.00, -0.00, -1.00, 31.2, 3.1)">&amp;</text><text xml:space="preserve" font-family="JuliusSansOne-Regular,Julius Sans One" font-size="26.0" fill="#FEFFFE" transform="matrix(1.00, 0.00, -0.00, -1.00, 52.5, 3.1)">M</text><text xml:space="preserve" font-family="JuliusSansOne-Regular,Julius Sans One" font-size="26.0" fill="#FEFFFE" transform="matrix(1.00, 0.00, -0.00, -1.00, 81.1, 3.1)"> </text><text xml:space="preserve" font-family="JuliusSansOne-Regular,Julius Sans One" font-size="26.0" fill="#FEFFFE" transform="matrix(1.00, 0.00, -0.00, -1.00, 94.6, 3.1)">S</text><text xml:space="preserve" font-family="JuliusSansOne-Regular,Julius Sans One" font-size="26.0" fill="#FEFFFE" transform="matrix(1.00, 0.00, -0.00, -1.00, 113.0, 3.1)">T</text><text xml:space="preserve" font-family="JuliusSansOne-Regular,Julius Sans One" font-size="26.0" fill="#FEFFFE" transform="matrix(1.00, 0.00, -0.00, -1.00, 132.1, 3.1)">U</text><text xml:space="preserve" font-family="JuliusSansOne-Regular,Julius Sans One" font-size="26.0" fill="#FEFFFE" transform="matrix(1.00, 0.00, -0.00, -1.00, 157.3, 3.1)">D</text><text xml:space="preserve" font-family="JuliusSansOne-Regular,Julius Sans One" font-size="26.0" fill="#FEFFFE" transform="matrix(1.00, 0.00, -0.00, -1.00, 182.6, 3.1)">E</text><text xml:space="preserve" font-family="JuliusSansOne-Regular,Julius Sans One" font-size="26.0" fill="#FEFFFE" transform="matrix(1.00, 0.00, -0.00, -1.00, 200.7, 3.1)">N</text><text xml:space="preserve" font-family="JuliusSansOne-Regular,Julius Sans One" font-size="26.0" fill="#FEFFFE" transform="matrix(1.00, 0.00, -0.00, -1.00, 227.6, 3.1)">T</text><text xml:space="preserve" font-family="JuliusSansOne-Regular,Julius Sans One" font-size="26.0" fill="#FEFFFE" transform="matrix(1.00, 0.00, -0.00, -1.00, 246.7, 3.1)">S</text><text xml:space="preserve" font-family="JuliusSansOne-Regular,Julius Sans One" font-size="26.0" fill="#FEFFFE" transform="matrix(1.00, 0.00, -0.00, -1.00, 265.1, 3.1)"> </text><text xml:space="preserve" font-family="JuliusSansOne-Regular,Julius Sans One" font-size="26.0" fill="#FEFFFE" transform="matrix(1.00, 0.00, -0.00, -1.00, 278.6, 3.1)">E</text><text xml:space="preserve" font-family="JuliusSansOne-Regular,Julius Sans One" font-size="26.0" fill="#FEFFFE" transform="matrix(1.00, 0.00, -0.00, -1.00, 296.7, 3.1)">M</text><text xml:space="preserve" font-family="JuliusSansOne-Regular,Julius Sans One" font-size="26.0" fill="#FEFFFE" transform="matrix(1.00, 0.00, -0.00, -1.00, 325.3, 3.1)">B</text><text xml:space="preserve" font-family="JuliusSansOne-Regular,Julius Sans One" font-size="26.0" fill="#FEFFFE" transform="matrix(1.00, 0.00, -0.00, -1.00, 345.8, 3.1)">O</text><text xml:space="preserve" font-family="JuliusSansOne-Regular,Julius Sans One" font-size="26.0" fill="#FEFFFE" transform="matrix(1.00, 0.00, -0.00, -1.00, 372.9, 3.1)">D</text><text xml:space="preserve" font-family="JuliusSansOne-Regular,Julius Sans One" font-size="26.0" fill="#FEFFFE" transform="matrix(1.00, 0.00, -0.00, -1.00, 397.9, 3.1)">Y</text><text xml:space="preserve" font-family="JuliusSansOne-Regular,Julius Sans One" font-size="26.0" fill="#FEFFFE" transform="matrix(1.00, 0.00, -0.00, -1.00, 418.1, 3.1)"> </text><text xml:space="preserve" font-family="JuliusSansOne-Regular,Julius Sans One" font-size="26.0" fill="#FEFFFE" transform="matrix(1.00, 0.00, -0.00, -1.00, 431.6, 3.1)">A</text><text xml:space="preserve" font-family="JuliusSansOne-Regular,Julius Sans One" font-size="26.0" fill="#FEFFFE" transform="matrix(1.00, 0.00, -0.00, -1.00, 453.0, 3.1)"> </text><text xml:space="preserve" font-family="JuliusSansOne-Regular,Julius Sans One" font-size="26.0" fill="#FEFFFE" transform="matrix(1.00, 0.00, -0.00, -1.00, 466.6, 3.1)">R</text><text xml:space="preserve" font-family="JuliusSansOne-Regular,Julius Sans One" font-size="26.0" fill="#FEFFFE" transform="matrix(1.00, 0.00, -0.00, -1.00, 487.8, 3.1)">E</text><text xml:space="preserve" font-family="JuliusSansOne-Regular,Julius Sans One" font-size="26.0" fill="#FEFFFE" transform="matrix(1.00, 0.00, -0.00, -1.00, 505.9, 3.1)">F</text><text xml:space="preserve" font-family="JuliusSansOne-Regular,Julius Sans One" font-size="26.0" fill="#FEFFFE" transform="matrix(1.00, 0.00, -0.00, -1.00, 524.4, 3.1)">R</text><text xml:space="preserve" font-family="JuliusSansOne-Regular,Julius Sans One" font-size="26.0" fill="#FEFFFE" transform="matrix(1.00, 0.00, -0.00, -1.00, 545.7, 3.1)">E</text><text xml:space="preserve" font-family="JuliusSansOne-Regular,Julius Sans One" font-size="26.0" fill="#FEFFFE" transform="matrix(1.00, 0.00, -0.00, -1.00, 563.8, 3.1)">S</text><text xml:space="preserve" font-family="JuliusSansOne-Regular,Julius Sans One" font-size="26.0" fill="#FEFFFE" transform="matrix(1.00, 0.00, -0.00, -1.00, 582.2, 3.1)">H</text><text xml:space="preserve" font-family="JuliusSansOne-Regular,Julius Sans One" font-size="26.0" fill="#FEFFFE" transform="matrix(1.00, 0.00, -0.00, -1.00, 608.4, 3.1)">I</text><text xml:space="preserve" font-family="JuliusSansOne-Regular,Julius Sans One" font-size="26.0" fill="#FEFFFE" transform="matrix(1.00, 0.00, -0.00, -1.00, 620.7, 3.1)">N</text><text xml:space="preserve" font-family="JuliusSansOne-Regular,Julius Sans One" font-size="26.0" fill="#FEFFFE" transform="matrix(1.00, 0.00, -0.00, -1.00, 647.6, 3.1)">G</text><text xml:space="preserve" font-family="JuliusSansOne-Regular,Julius Sans One" font-size="26.0" fill="#FEFFFE" transform="matrix(1.00, 0.00, -0.00, -1.00, 673.2, 3.1)"> </text><text xml:space="preserve" font-family="JuliusSansOne-Regular,Julius Sans One" font-size="26.0" fill="#FEFFFE" transform="matrix(1.00, 0.00, -0.00, -1.00, 686.7, 3.1)">S</text><text xml:space="preserve" font-family="JuliusSansOne-Regular,Julius Sans One" font-size="26.0" fill="#FEFFFE" transform="matrix(1.00, 0.00, -0.00, -1.00, 705.1, 3.1)">P</text><text xml:space="preserve" font-family="JuliusSansOne-Regular,Julius Sans One" font-size="26.0" fill="#FEFFFE" transform="matrix(1.00, 0.00, -0.00, -1.00, 724.3, 3.1)">I</text><text xml:space="preserve" font-family="JuliusSansOne-Regular,Julius Sans One" font-size="26.0" fill="#FEFFFE" transform="matrix(1.00, 0.00, -0.00, -1.00, 736.6, 3.1)">R</text><text xml:space="preserve" font-family="JuliusSansOne-Regular,Julius Sans One" font-size="26.0" fill="#FEFFFE" transform="matrix(1.00, 0.00, -0.00, -1.00, 757.9, 3.1)">I</text><text xml:space="preserve" font-family="JuliusSansOne-Regular,Julius Sans One" font-size="26.0" fill="#FEFFFE" transform="matrix(1.00, 0.00, -0.00, -1.00, 770.1, 3.1)">T</text><text xml:space="preserve" font-family="JuliusSansOne-Regular,Julius Sans One" font-size="26.0" fill="#FEFFFE" transform="matrix(1.00, 0.00, -0.00, -1.00, 788.5, 3.1)">:</text><text xml:space="preserve" font-family="JuliusSansOne-Regular,Julius Sans One" font-size="26.0" fill="#FEFFFE" transform="matrix(1.00, 0.00, -0.00, -1.00, 798.2, 3.1)"> </text><text xml:space="preserve" font-family="JuliusSansOne-Regular,Julius Sans One" font-size="26.0" fill="#FEFFFE" transform="matrix(1.00, 0.00, -0.00, -1.00, 811.7, 3.1)">B</text><text xml:space="preserve" font-family="JuliusSansOne-Regular,Julius Sans One" font-size="26.0" fill="#FEFFFE" transform="matrix(1.00, 0.00, -0.00, -1.00, 832.2, 3.1)">O</text><text xml:space="preserve" font-family="JuliusSansOne-Regular,Julius Sans One" font-size="26.0" fill="#FEFFFE" transform="matrix(1.00, 0.00, -0.00, -1.00, 859.3, 3.1)">R</text><text xml:space="preserve" font-family="JuliusSansOne-Regular,Julius Sans One" font-size="26.0" fill="#FEFFFE" transform="matrix(1.00, 0.00, -0.00, -1.00, 880.6, 3.1)">N</text><text xml:space="preserve" font-family="JuliusSansOne-Regular,Julius Sans One" font-size="26.0" fill="#FEFFFE" transform="matrix(1.00, 0.00, -0.00, -1.00, 907.5, 3.1)"> </text><text xml:space="preserve" font-family="JuliusSansOne-Regular,Julius Sans One" font-size="26.0" fill="#FEFFFE" transform="matrix(1.00, 0.00, -0.00, -1.00, 921.0, 3.1)">O</text><text xml:space="preserve" font-family="JuliusSansOne-Regular,Julius Sans One" font-size="26.0" fill="#FEFFFE" transform="matrix(1.00, 0.00, -0.00, -1.00, 948.1, 3.1)">F</text><text xml:space="preserve" font-family="JuliusSansOne-Regular,Julius Sans One" font-size="26.0" fill="#FEFFFE" transform="matrix(1.00, 0.00, -0.00, -1.00, 966.7, 3.1)"> </text><text xml:space="preserve" font-family="JuliusSansOne-Regular,Julius Sans One" font-size="26.0" fill="#FEFFFE" transform="matrix(1.00, 0.00, -0.00, -1.00, 980.2, 3.1)">T</text><text xml:space="preserve" font-family="JuliusSansOne-Regular,Julius Sans One" font-size="26.0" fill="#FEFFFE" transform="matrix(1.00, 0.00, -0.00, -1.00, 999.3, 3.1)">H</text><text xml:space="preserve" font-family="JuliusSansOne-Regular,Julius Sans One" font-size="26.0" fill="#FEFFFE" transform="matrix(1.00, 0.00, -0.00, -1.00, 1025.6, 3.1)">E</text><text xml:space="preserve" font-family="JuliusSansOne-Regular,Julius Sans One" font-size="26.0" fill="#FEFFFE" transform="matrix(1.00, 0.00, -0.00, -1.00, 1043.7, 3.1)"> </text><text xml:space="preserve" font-family="JuliusSansOne-Regular,Julius Sans One" font-size="26.0" fill="#FEFFFE" transform="matrix(1.00, 0.00, -0.00, -1.00, 1057.2, 3.1)">V</text><text xml:space="preserve" font-family="JuliusSansOne-Regular,Julius Sans One" font-size="26.0" fill="#FEFFFE" transform="matrix(1.00, 0.00, -0.00, -1.00, 1077.4, 3.1)">A</text><text xml:space="preserve" font-family="JuliusSansOne-Regular,Julius Sans One" font-size="26.0" fill="#FEFFFE" transform="matrix(1.00, 0.00, -0.00, -1.00, 1098.8, 3.1)">L</text><text xml:space="preserve" font-family="JuliusSansOne-Regular,Julius Sans One" font-size="26.0" fill="#FEFFFE" transform="matrix(1.00, 0.00, -0.00, -1.00, 1116.1, 3.1)">U</text><text xml:space="preserve" font-family="JuliusSansOne-Regular,Julius Sans One" font-size="26.0" fill="#FEFFFE" transform="matrix(1.00, 0.00, -0.00, -1.00, 1141.3, 3.1)">E</text><text xml:space="preserve" font-family="JuliusSansOne-Regular,Julius Sans One" font-size="26.0" fill="#FEFFFE" transform="matrix(1.00, 0.00, -0.00, -1.00, 1159.4, 3.1)">S</text><text xml:space="preserve" font-family="JuliusSansOne-Regular,Julius Sans One" font-size="26.0" fill="#FEFFFE" transform="matrix(1.00, 0.00, -0.00, -1.00, 1177.7, 3.1)"> </text><text xml:space="preserve" font-family="JuliusSansOne-Regular,Julius Sans One" font-size="26.0" fill="#FEFFFE" transform="matrix(1.00, 0.00, -0.00, -1.00, 1191.3, 3.1)">O</text><text xml:space="preserve" font-family="JuliusSansOne-Regular,Julius Sans One" font-size="26.0" fill="#FEFFFE" transform="matrix(1.00, 0.00, -0.00, -1.00, 1218.4, 3.1)">F</text><text xml:space="preserve" font-family="JuliusSansOne-Regular,Julius Sans One" font-size="26.0" fill="#FEFFFE" transform="matrix(1.00, 0.00, -0.00, -1.00, 1236.9, 3.1)"> </text><text xml:space="preserve" font-family="JuliusSansOne-Regular,Julius Sans One" font-size="26.0" fill="#FEFFFE" transform="matrix(1.00, 0.00, -0.00, -1.00, 1250.4, 3.1)">F</text><text xml:space="preserve" font-family="JuliusSansOne-Regular,Julius Sans One" font-size="26.0" fill="#FEFFFE" transform="matrix(1.00, 0.00, -0.00, -1.00, 1269.0, 3.1)">R</text><text xml:space="preserve" font-family="JuliusSansOne-Regular,Julius Sans One" font-size="26.0" fill="#FEFFFE" transform="matrix(1.00, 0.00, -0.00, -1.00, 1290.2, 3.1)">I</text><text xml:space="preserve" font-family="JuliusSansOne-Regular,Julius Sans One" font-size="26.0" fill="#FEFFFE" transform="matrix(1.00, 0.00, -0.00, -1.00, 1302.5, 3.1)">E</text><text xml:space="preserve" font-family="JuliusSansOne-Regular,Julius Sans One" font-size="26.0" fill="#FEFFFE" transform="matrix(1.00, 0.00, -0.00, -1.00, 1320.6, 3.1)">N</text><text xml:space="preserve" font-family="JuliusSansOne-Regular,Julius Sans One" font-size="26.0" fill="#FEFFFE" transform="matrix(1.00, 0.00, -0.00, -1.00, 1347.5, 3.1)">D</text><text xml:space="preserve" font-family="JuliusSansOne-Regular,Julius Sans One" font-size="26.0" fill="#FEFFFE" transform="matrix(1.00, 0.00, -0.00, -1.00, 1372.8, 3.1)">L</text><text xml:space="preserve" font-family="JuliusSansOne-Regular,Julius Sans One" font-size="26.0" fill="#FEFFFE" transform="matrix(1.00, 0.00, -0.00, -1.00, 1390.8, 3.1)">I</text><text xml:space="preserve" font-family="JuliusSansOne-Regular,Julius Sans One" font-size="26.0" fill="#FEFFFE" transform="matrix(1.00, 0.00, -0.00, -1.00, 1403.1, 3.1)">N</text><text xml:space="preserve" font-family="JuliusSansOne-Regular,Julius Sans One" font-size="26.0" fill="#FEFFFE" transform="matrix(1.00, 0.00, -0.00, -1.00, 1430.0, 3.1)">E</text><text xml:space="preserve" font-family="JuliusSansOne-Regular,Julius Sans One" font-size="26.0" fill="#FEFFFE" transform="matrix(1.00, 0.00, -0.00, -1.00, 1448.1, 3.1)">S</text><text xml:space="preserve" font-family="JuliusSansOne-Regular,Julius Sans One" font-size="26.0" fill="#FEFFFE" transform="matrix(1.00, 0.00, -0.00, -1.00, 1466.4, 3.1)">S</text><text xml:space="preserve" font-family="JuliusSansOne-Regular,Julius Sans One" font-size="26.0" fill="#FEFFFE" transform="matrix(1.00, 0.00, -0.00, -1.00, 1484.8, 3.1)">,</text><text xml:space="preserve" font-family="JuliusSansOne-Regular,Julius Sans One" font-size="26.0" fill="#FEFFFE" transform="matrix(1.00, 0.00, -0.00, -1.00, 1491.9, 3.1)"> </text><text xml:space="preserve" font-family="JuliusSansOne-Regular,Julius Sans One" font-size="26.0" fill="#FEFFFE" transform="matrix(1.00, 0.00, -0.00, -1.00, 1505.4, 3.1)">C</text><text xml:space="preserve" font-family="JuliusSansOne-Regular,Julius Sans One" font-size="26.0" fill="#FEFFFE" transform="matrix(1.00, 0.00, -0.00, -1.00, 1529.0, 3.1)">A</text><text xml:space="preserve" font-family="JuliusSansOne-Regular,Julius Sans One" font-size="26.0" fill="#FEFFFE" transform="matrix(1.00, 0.00, -0.00, -1.00, 1550.4, 3.1)">R</text><text xml:space="preserve" font-family="JuliusSansOne-Regular,Julius Sans One" font-size="26.0" fill="#FEFFFE" transform="matrix(1.00, 0.00, -0.00, -1.00, 1571.6, 3.1)">I</text><text xml:space="preserve" font-family="JuliusSansOne-Regular,Julius Sans One" font-size="26.0" fill="#FEFFFE" transform="matrix(1.00, 0.00, -0.00, -1.00, 1583.9, 3.1)">N</text><text xml:space="preserve" font-family="JuliusSansOne-Regular,Julius Sans One" font-size="26.0" fill="#FEFFFE" transform="matrix(1.00, 0.00, -0.00, -1.00, 1610.8, 3.1)">G</text><text xml:space="preserve" font-family="JuliusSansOne-Regular,Julius Sans One" font-size="26.0" fill="#FEFFFE" transform="matrix(1.00, 0.00, -0.00, -1.00, 1636.4, 3.1)">,</text></g></svg>