<svg xmlns="http://www.w3.org/2000/svg" xmlns:xlink="http://www.w3.org/1999/xlink" xml:space="preserve" version="1.1" style="shape-rendering:geometricPrecision;text-rendering:geometricPrecision;image-rendering:optimizeQuality;" viewBox="0 0 10000 12500" x="0px" y="0px" fill-rule="evenodd" clip-rule="evenodd"><defs><style type="text/css">
   
    .fil0 {fill:black}
   
  </style></defs><g><path class="fil0" d="M4946 3249c-359,1675 -215,3686 1117,4824 606,517 3581,650 2811,737 -3227,366 -6157,-85 -7875,72 0,0 3570,-484 3570,-1148 0,-2041 -521,-2421 377,-4485z"/><path class="fil0" d="M5046 4985c450,-1326 1945,-1346 3139,-1346 -595,1361 -1778,1651 -3139,1346z"/><path class="fil0" d="M6355 1863c-1217,264 -1157,1125 -1157,2189 1153,-746 1133,-860 1157,-2189z"/><path class="fil0" d="M4382 1042c780,509 640,971 350,1763 -530,-633 -533,-975 -350,-1763z"/><path class="fil0" d="M2830 2231c1077,262 1283,656 1525,1691 -1226,-242 -1247,-506 -1525,-1691z"/><path class="fil0" d="M4171 4505c-804,-533 -1961,-636 -2691,80 973,999 1720,780 2691,-80z"/><path class="fil0" d="M4091 5415c-1021,362 -1306,1097 -1498,2090 1360,-256 1475,-809 1498,-2090z"/><path class="fil0" d="M5133 5587c961,-102 1453,178 1956,987 -1026,481 -1579,-40 -1956,-987z"/></g><text x="0" y="10015" fill="#000000" font-size="5px" font-weight="bold" font-family="'Helvetica Neue', Helvetica, Arial-Unicode, Arial, Sans-serif">Created by zoo</text><text x="0" y="10020" fill="#000000" font-size="5px" font-weight="bold" font-family="'Helvetica Neue', Helvetica, Arial-Unicode, Arial, Sans-serif">from the Noun Project</text></svg>