<?xml version="1.0" encoding="UTF-8" standalone="no"?><svg xmlns="http://www.w3.org/2000/svg" xmlns:xlink="http://www.w3.org/1999/xlink" clip-rule="evenodd" stroke-miterlimit="10" viewBox="0 0 1266 67"><desc>SVG generated by Keynote</desc><defs></defs><g transform="matrix(1.00, 0.00, -0.00, -1.00, 0.0, 67.0)"><text xml:space="preserve" font-family="JuliusSansOne-Regular,Julius Sans One" font-size="86.0" fill="#FEFFFF" transform="matrix(1.00, 0.00, -0.00, -1.00, -6.0, 2.6)">O</text><text xml:space="preserve" font-family="JuliusSansOne-Regular,Julius Sans One" font-size="86.0" fill="#FEFFFF" transform="matrix(1.00, 0.00, -0.00, -1.00, 83.7, 2.6)">U</text><text xml:space="preserve" font-family="JuliusSansOne-Regular,Julius Sans One" font-size="86.0" fill="#FEFFFF" transform="matrix(1.00, 0.00, -0.00, -1.00, 166.9, 2.6)">T</text><text xml:space="preserve" font-family="JuliusSansOne-Regular,Julius Sans One" font-size="86.0" fill="#FEFFFF" transform="matrix(1.00, 0.00, -0.00, -1.00, 230.2, 2.6)">S</text><text xml:space="preserve" font-family="JuliusSansOne-Regular,Julius Sans One" font-size="86.0" fill="#FEFFFF" transform="matrix(1.00, 0.00, -0.00, -1.00, 291.0, 2.6)">I</text><text xml:space="preserve" font-family="JuliusSansOne-Regular,Julius Sans One" font-size="86.0" fill="#FEFFFF" transform="matrix(1.00, 0.00, -0.00, -1.00, 331.5, 2.6)">D</text><text xml:space="preserve" font-family="JuliusSansOne-Regular,Julius Sans One" font-size="86.0" fill="#FEFFFF" transform="matrix(1.00, 0.00, -0.00, -1.00, 415.4, 2.6)">E</text><text xml:space="preserve" font-family="JuliusSansOne-Regular,Julius Sans One" font-size="86.0" fill="#FEFFFF" transform="matrix(1.00, 0.00, -0.00, -1.00, 475.2, 2.6)"> </text><text xml:space="preserve" font-family="JuliusSansOne-Regular,Julius Sans One" font-size="86.0" fill="#FEFFFF" transform="matrix(1.00, 0.00, -0.00, -1.00, 519.9, 2.6)">L</text><text xml:space="preserve" font-family="JuliusSansOne-Regular,Julius Sans One" font-size="86.0" fill="#FEFFFF" transform="matrix(1.00, 0.00, -0.00, -1.00, 575.5, 2.6)">O</text><text xml:space="preserve" font-family="JuliusSansOne-Regular,Julius Sans One" font-size="86.0" fill="#FEFFFF" transform="matrix(1.00, 0.00, -0.00, -1.00, 665.2, 2.6)">O</text><text xml:space="preserve" font-family="JuliusSansOne-Regular,Julius Sans One" font-size="86.0" fill="#FEFFFF" transform="matrix(1.00, 0.00, -0.00, -1.00, 754.9, 2.6)">K</text><text xml:space="preserve" font-family="JuliusSansOne-Regular,Julius Sans One" font-size="86.0" fill="#FEFFFF" transform="matrix(1.00, 0.00, -0.00, -1.00, 822.0, 2.6)">I</text><text xml:space="preserve" font-family="JuliusSansOne-Regular,Julius Sans One" font-size="86.0" fill="#FEFFFF" transform="matrix(1.00, 0.00, -0.00, -1.00, 862.6, 2.6)">N</text><text xml:space="preserve" font-family="JuliusSansOne-Regular,Julius Sans One" font-size="86.0" fill="#FEFFFF" transform="matrix(1.00, 0.00, -0.00, -1.00, 951.6, 2.6)">G</text><text xml:space="preserve" font-family="JuliusSansOne-Regular,Julius Sans One" font-size="86.0" fill="#FEFFFF" transform="matrix(1.00, 0.00, -0.00, -1.00, 1036.1, 2.6)"> </text><text xml:space="preserve" font-family="JuliusSansOne-Regular,Julius Sans One" font-size="86.0" fill="#FEFFFF" transform="matrix(1.00, 0.00, -0.00, -1.00, 1080.8, 2.6)">I</text><text xml:space="preserve" font-family="JuliusSansOne-Regular,Julius Sans One" font-size="86.0" fill="#FEFFFF" transform="matrix(1.00, 0.00, -0.00, -1.00, 1121.4, 2.6)">N</text><text xml:space="preserve" font-family="JuliusSansOne-Regular,Julius Sans One" font-size="86.0" fill="#FEFFFF" transform="matrix(1.00, 0.00, -0.00, -1.00, 1210.4, 2.6)">.</text><text xml:space="preserve" font-family="JuliusSansOne-Regular,Julius Sans One" font-size="86.0" fill="#FEFFFF" transform="matrix(1.00, 0.00, -0.00, -1.00, 1233.9, 2.6)">.</text><text xml:space="preserve" font-family="JuliusSansOne-Regular,Julius Sans One" font-size="86.0" fill="#FEFFFF" transform="matrix(1.00, 0.00, -0.00, -1.00, 1257.3, 2.6)">.</text></g></svg>