<?xml version="1.0" encoding="UTF-8" standalone="no"?><svg xmlns="http://www.w3.org/2000/svg" xmlns:xlink="http://www.w3.org/1999/xlink" clip-rule="evenodd" stroke-miterlimit="10" viewBox="0 0 555 67"><desc>SVG generated by Keynote</desc><defs></defs><g transform="matrix(1.00, 0.00, -0.00, -1.00, 0.0, 67.0)"><text xml:space="preserve" font-family="JuliusSansOne-Regular,Julius Sans One" font-size="86.0" fill="#FEFFFF" transform="matrix(1.00, 0.00, -0.00, -1.00, -10.0, 2.6)">I</text><text xml:space="preserve" font-family="JuliusSansOne-Regular,Julius Sans One" font-size="86.0" fill="#FEFFFF" transform="matrix(1.00, 0.00, -0.00, -1.00, 30.6, 2.6)">N</text><text xml:space="preserve" font-family="JuliusSansOne-Regular,Julius Sans One" font-size="86.0" fill="#FEFFFF" transform="matrix(1.00, 0.00, -0.00, -1.00, 119.6, 2.6)">T</text><text xml:space="preserve" font-family="JuliusSansOne-Regular,Julius Sans One" font-size="86.0" fill="#FEFFFF" transform="matrix(1.00, 0.00, -0.00, -1.00, 182.9, 2.6)">E</text><text xml:space="preserve" font-family="JuliusSansOne-Regular,Julius Sans One" font-size="86.0" fill="#FEFFFF" transform="matrix(1.00, 0.00, -0.00, -1.00, 242.7, 2.6)">G</text><text xml:space="preserve" font-family="JuliusSansOne-Regular,Julius Sans One" font-size="86.0" fill="#FEFFFF" transform="matrix(1.00, 0.00, -0.00, -1.00, 327.1, 2.6)">R</text><text xml:space="preserve" font-family="JuliusSansOne-Regular,Julius Sans One" font-size="86.0" fill="#FEFFFF" transform="matrix(1.00, 0.00, -0.00, -1.00, 397.5, 2.6)">I</text><text xml:space="preserve" font-family="JuliusSansOne-Regular,Julius Sans One" font-size="86.0" fill="#FEFFFF" transform="matrix(1.00, 0.00, -0.00, -1.00, 438.1, 2.6)">T</text><text xml:space="preserve" font-family="JuliusSansOne-Regular,Julius Sans One" font-size="86.0" fill="#FEFFFF" transform="matrix(1.00, 0.00, -0.00, -1.00, 501.4, 2.6)">Y</text></g></svg>